<svg id="Layer_1" enable-background="new 0 0 512 512" viewBox="0 0 512 512" xmlns="http://www.w3.org/2000/svg"><g><g><path clip-rule="evenodd" d="m218.755.5h178.695c12.762 0 23.217 10.455 23.217 23.217v414.95c0 12.791-10.455 23.217-23.217 23.217h-178.695c-12.791 0-23.217-10.426-23.217-23.217v-414.95c0-12.762 10.426-23.217 23.217-23.217z" fill="#7c8c96" fill-rule="evenodd"/></g><g><path clip-rule="evenodd" d="m218.755.5h19.771c-12.762 0-23.217 10.455-23.217 23.217v414.95c0 12.791 10.455 23.217 23.217 23.217h-19.771c-12.791 0-23.217-10.426-23.217-23.217v-414.95c0-12.762 10.426-23.217 23.217-23.217z" fill="#6a7b85" fill-rule="evenodd"/></g><g><path clip-rule="evenodd" d="m225.326 30.287h165.554v177.293h-165.554z" fill="#33baf2" fill-rule="evenodd"/></g><g><path clip-rule="evenodd" d="m225.326 30.287h14.864v177.293h-14.864z" fill="#2eb0e8" fill-rule="evenodd"/></g><g><path clip-rule="evenodd" d="m308.088 406.018c27.889 0 50.609-22.72 50.609-50.609 0-27.86-22.72-50.609-50.609-50.609-27.86 0-50.58 22.749-50.58 50.609 0 27.888 22.72 50.609 50.58 50.609z" fill="#4f5965" fill-rule="evenodd"/></g><g><path clip-rule="evenodd" d="m306.54 334.557h162.283c11.477 0 20.851 9.374 20.851 20.851s-9.374 20.88-20.851 20.88h-162.283c-11.477 0-20.851-9.403-20.851-20.88s9.374-20.851 20.851-20.851z" fill="#fac600" fill-rule="evenodd"/></g><g><path d="m360.362 74.005h-104.519c-4.548 0-8.235-3.687-8.235-8.236s3.687-8.236 8.235-8.236h104.519c4.548 0 8.235 3.687 8.235 8.236s-3.687 8.236-8.235 8.236z" fill="#2eb0e8"/></g><g fill="#f0b500"><path d="m259.406 89.132c-6.506 0-11.798 5.293-11.798 11.798 0 6.49 5.292 11.77 11.798 11.77 6.489 0 11.769-5.28 11.769-11.77 0-6.505-5.28-11.798-11.769-11.798z"/><path d="m291.88 89.132c-6.505 0-11.798 5.293-11.798 11.798 0 6.49 5.293 11.77 11.798 11.77 6.49 0 11.769-5.28 11.769-11.77 0-6.505-5.279-11.798-11.769-11.798z"/><path d="m324.325 89.132c-6.489 0-11.769 5.293-11.769 11.798 0 6.49 5.279 11.77 11.769 11.77 6.505 0 11.798-5.28 11.798-11.77 0-6.505-5.293-11.798-11.798-11.798z"/><path d="m356.799 112.7c6.505 0 11.798-5.28 11.798-11.77 0-6.505-5.293-11.798-11.798-11.798-6.49 0-11.769 5.293-11.769 11.798 0 6.49 5.28 11.77 11.769 11.77z"/><path d="m259.406 122.949c-6.506 0-11.798 5.293-11.798 11.798 0 6.49 5.292 11.77 11.798 11.77 6.489 0 11.769-5.28 11.769-11.77 0-6.505-5.28-11.798-11.769-11.798z"/><path d="m291.88 122.949c-6.505 0-11.798 5.293-11.798 11.798 0 6.49 5.293 11.77 11.798 11.77 6.49 0 11.769-5.28 11.769-11.77 0-6.505-5.279-11.798-11.769-11.798z"/><path d="m324.325 122.949c-6.489 0-11.769 5.293-11.769 11.798 0 6.49 5.279 11.77 11.769 11.77 6.505 0 11.798-5.28 11.798-11.77 0-6.505-5.293-11.798-11.798-11.798z"/><path d="m356.799 122.949c-6.49 0-11.769 5.293-11.769 11.798 0 6.49 5.279 11.77 11.769 11.77 6.505 0 11.798-5.28 11.798-11.77 0-6.505-5.292-11.798-11.798-11.798z"/><path d="m259.406 156.767c-6.506 0-11.798 5.293-11.798 11.798 0 6.49 5.292 11.77 11.798 11.77 6.489 0 11.769-5.28 11.769-11.77 0-6.505-5.28-11.798-11.769-11.798z"/><path d="m291.88 156.767c-6.505 0-11.798 5.293-11.798 11.798 0 6.49 5.293 11.77 11.798 11.77 6.49 0 11.769-5.28 11.769-11.77 0-6.505-5.279-11.798-11.769-11.798z"/><path d="m324.325 156.767c-6.489 0-11.769 5.293-11.769 11.798 0 6.49 5.279 11.77 11.769 11.77 6.505 0 11.798-5.28 11.798-11.77 0-6.505-5.293-11.798-11.798-11.798z"/><path d="m356.799 156.767c-6.49 0-11.769 5.293-11.769 11.798 0 6.49 5.279 11.77 11.769 11.77 6.505 0 11.798-5.28 11.798-11.77 0-6.505-5.292-11.798-11.798-11.798z"/></g><g><path clip-rule="evenodd" d="m206.723 109.545h-143.038c-10.221 0-18.602 8.352-18.602 18.573v233.422c0 10.221 8.381 18.573 18.602 18.573h143.038c10.221 0 18.603-8.352 18.603-18.573v-233.421c0-10.222-8.382-18.574-18.603-18.574z" fill="#8399fe" fill-rule="evenodd"/></g><g><path clip-rule="evenodd" d="m146.564 380.114h-72.833-10.046c-10.221 0-18.602-8.352-18.602-18.573v-35.57c-19.712 13.609-28.269 33.671-19.041 64.101l43.659 121.428h137.314c14.018-34.08 21.056-67.635-11.477-98.328v-33.058-70.176c0-13.463-11.039-24.472-24.502-24.472s-24.472 11.01-24.472 24.472z" fill="#ffbfa8" fill-rule="evenodd"/></g><path d="m200.063 202.197c-1.621 1.733-3.816 2.61-6.016 2.61-2.016 0-4.036-.735-5.624-2.221-15.807-14.786-34.21-22.602-53.219-22.602-18.981 0-37.386 7.817-53.224 22.607-3.325 3.105-8.536 2.925-11.64-.398-3.104-3.325-2.925-8.536.399-11.64 18.944-17.689 41.236-27.039 64.465-27.039 23.263 0 45.556 9.353 64.47 27.045 3.322 3.105 3.496 8.316.389 11.638zm-16.49 9.589c-14.433-12.112-31.159-18.515-48.369-18.515s-33.936 6.403-48.369 18.515c-3.484 2.924-3.938 8.118-1.014 11.602 2.923 3.482 8.118 3.938 11.602 1.014 11.429-9.591 24.493-14.66 37.781-14.66s26.352 5.069 37.781 14.66c1.543 1.295 3.421 1.928 5.289 1.928 2.35 0 4.684-1.001 6.313-2.942 2.924-3.484 2.47-8.678-1.014-11.602zm-16.662 21.404c-9.733-6.627-20.697-10.131-31.707-10.131-11.027 0-21.984 3.506-31.689 10.139-3.755 2.567-4.719 7.692-2.152 11.446 2.567 3.756 7.692 4.718 11.446 2.152 7.054-4.822 14.589-7.266 22.395-7.266 7.8 0 15.348 2.447 22.436 7.274 1.419.966 3.032 1.429 4.628 1.429 2.633 0 5.221-1.26 6.814-3.601 2.561-3.759 1.589-8.882-2.171-11.442z" fill="#e2f0fa"/><g><path clip-rule="evenodd" d="m77.907 109.545h-14.222c-10.221 0-18.602 8.352-18.602 18.573v233.422c0 10.221 8.381 18.573 18.602 18.573h14.222c-10.221 0-18.603-8.352-18.603-18.573v-233.421c.001-10.222 8.382-18.574 18.603-18.574z" fill="#6a85f2" fill-rule="evenodd"/></g><g><path clip-rule="evenodd" d="m308.088 304.799c2.219 0 4.38.146 6.512.409-24.881 3.212-44.126 24.443-44.126 50.201s19.245 47.017 44.126 50.201c-2.132.263-4.293.409-6.512.409-27.948 0-50.58-22.662-50.58-50.609s22.632-50.611 50.58-50.611z" fill="#444d59" fill-rule="evenodd"/></g><g><path clip-rule="evenodd" d="m306.54 334.557h162.283c8.907 0 16.558 5.666 19.537 13.58h-177.469c-11.185 0-20.384 8.907-20.851 19.975-2.716-3.504-4.351-7.914-4.351-12.703 0-11.478 9.374-20.852 20.851-20.852z" fill="#fbc02d" fill-rule="evenodd"/></g><g><path clip-rule="evenodd" d="m44.586 390.072c-5.315-17.551-4.731-31.656.497-43.046v-21.056c-19.712 13.609-28.269 33.671-19.041 64.101l43.659 121.429h18.544z" fill="#faa07f" fill-rule="evenodd"/></g><g><path clip-rule="evenodd" d="m146.564 309.938v70.176h18.544v-70.176c0-10.192 6.308-18.982 15.215-22.633-2.862-1.197-6.016-1.84-9.287-1.84-13.462.001-24.472 11.011-24.472 24.473z" fill="#faa07f" fill-rule="evenodd"/></g></g></svg>