<svg id="Icons" height="512" viewBox="0 0 60 60" width="512" xmlns="http://www.w3.org/2000/svg"><path d="m43.489 42-10.55 10a3.854 3.854 0 0 1 -2.44 1h-16.47c-1.16 0-2.24 1.529-2.93 2.349l-3.081 3.331a1 1 0 0 1 -1.647-.261l-4.63-11.128a1 1 0 0 1 .238-1.152c.71-.66 1.38-1.279 1.98-1.8a16.542 16.542 0 0 1 3.341-2.339z" fill="#e8edfc"/><path d="m59 40a2.015 2.015 0 0 1 -2 2h-54a2.006 2.006 0 0 1 -2-2 1.955 1.955 0 0 1 .59-1.41 1.955 1.955 0 0 1 1.41-.59h54a2.006 2.006 0 0 1 2 2z" fill="#c6d8fb"/><path d="m56 38h-52a26 26 0 0 1 25.01-25.98c.33-.01.66-.02.99-.02s.66.01.99.02a25.983 25.983 0 0 1 25.01 25.98z" fill="#e8edfc"/><path d="m36 4.76c0 2.55-2 4.32-5.01 7.26-.33-.01-.66-.02-.99-.02s-.66.01-.99.02c-3.01-2.94-5.01-4.71-5.01-7.26 0-2.04 1.22-3.76 3-3.76a3.593 3.593 0 0 1 3 2.16 3.593 3.593 0 0 1 3-2.16c1.78 0 3 1.72 3 3.76z" fill="#c6d8fb"/><g fill="#fff"><path d="m10.3 42h-3a23.767 23.767 0 0 0 -5.32 4.139 1 1 0 0 0 -.238 1.152l4.63 11.128a1 1 0 0 0 1.647.261l1.008-1.087-4.287-10.303a1 1 0 0 1 .24-1.15 23.879 23.879 0 0 1 5.32-4.14z"/><path d="m3 42h3a2 2 0 0 1 0-4h1a25.994 25.994 0 0 1 24.5-25.949c-.171-.009-.342-.025-.514-.031l.51-.5c-2.713-2.64-4.496-4.361-4.496-6.76a3.931 3.931 0 0 1 1.539-3.294c-2.092-1.334-4.539.297-4.539 3.294 0 2.55 2 4.32 5.01 7.26a26 26 0 0 0 -25.01 25.98h-1a1.955 1.955 0 0 0 -1.41.59 2 2 0 0 0 1.41 3.41z"/><path d="m4.269 29.821 1.906.606a27.7 27.7 0 0 0 -1.175 7.573h-2a29.69 29.69 0 0 1 1.269-8.179z"/></g><path d="m4.355 35.012a1 1 0 0 1 -.01-2h.01a1 1 0 1 1 0 2z" fill="#428dff"/><path d="m56.976 37a26.961 26.961 0 0 0 -23.717-25.8c2.221-2.2 3.741-3.986 3.741-6.44 0-4.475-4.385-6.232-7-3.373-2.616-2.86-7-1.1-7 3.373 0 2.468 1.538 4.263 3.78 6.48a26.9 26.9 0 0 0 -22.511 18.581 1.007 1.007 0 0 0 .689 1.267.993.993 0 0 0 1.217-.661 25 25 0 0 1 48.801 6.573h-51.976a3 3 0 0 0 0 6h1c-.607.491-.822.678-2.7 2.4a1.984 1.984 0 0 0 -.487 2.274l4.649 11.162a2 2 0 0 0 3.29.523c3.271-3.538 3.008-3.238 3.4-3.712.435-.534 1.34-1.647 1.881-1.647h16.5a4.846 4.846 0 0 0 3.1-1.274l10.255-9.726h13.112a3 3 0 1 0 -.024-6zm-27.838-26.251c-2.58-2.51-4.138-4.025-4.138-5.989 0-1.338.7-2.76 2-2.76a2.573 2.573 0 0 1 2.08 1.552 1 1 0 0 0 1.837.006 2.577 2.577 0 0 1 2.083-1.558c1.3 0 2 1.422 2 2.76 0 2.223-2.211 4.112-4.411 6.254-.2 0-.392-.014-.589-.014-.714.01-.467.134-.862-.251zm3.128 40.512a2.847 2.847 0 0 1 -1.766.739h-16.471c-1.492 0-2.613 1.379-3.432 2.386l-3.3 3.649-4.641-11.16a24.415 24.415 0 0 1 4.894-3.875h22.57a1.408 1.408 0 0 1 .754 2.426 1.78 1.78 0 0 1 -1.286.574h-10.07a1 1 0 0 0 0 2h10.07c2.581 0 4.533-2.708 3.426-5h7.966zm24.734-10.261h-54a1 1 0 0 1 0-2h54a1 1 0 0 1 0 2z" fill="#428dff"/><path d="m10.79 32.143a1 1 0 0 0 .96-.722 18.99 18.99 0 0 1 12.518-12.821 1 1 0 0 0 -.6-1.906 20.985 20.985 0 0 0 -13.839 14.169 1 1 0 0 0 .961 1.28z" fill="#428dff"/></svg>