<svg xmlns="http://www.w3.org/2000/svg" version="1.1" xmlns:xlink="http://www.w3.org/1999/xlink" width="512" height="512" x="0" y="0" viewBox="0 0 64 64" style="enable-background:new 0 0 512 512" xml:space="preserve"><g><g data-name="29-weightlifting"><path fill="#333940" d="M25 25v1h-1a1.862 1.862 0 0 0-2 1.67V24a10 10 0 0 1 20 0v3.67A1.862 1.862 0 0 0 40 26h-1v-1c-1.66 0-3-1-4-3-2 2-3.92 3-10 3z" opacity="1" data-original="#333940"></path><path fill="#2b8ffc" d="M6 1v16H3V1zM61 9v8h-3V1h3z" opacity="1" data-original="#2b8ffc"></path><path fill="#7f52ff" d="M9 9v8H6V1h3zM58 1v16h-3V1z" opacity="1" data-original="#7f52ff"></path><path fill="#faa592" d="m20 7 .09.03a1.267 1.267 0 0 0-.09.47V9h-7V5a2.006 2.006 0 0 1 2-2h3a2.006 2.006 0 0 1 2 2zM51 5v4h-7V7.5a1.267 1.267 0 0 0-.09-.47L44 7V5a2.006 2.006 0 0 1 2-2h3a2.006 2.006 0 0 1 2 2z" opacity="1" data-original="#faa592"></path><path fill="#2b8ffc" d="M44.39 57.09 43 63H21l-1.39-5.91L20 57c4 0 4-6 4-6v-5l2-8 3 2v1a3 3 0 0 0 6 0v-1l3-2 2 8v5s0 6 4 6z" opacity="1" data-original="#2b8ffc"></path><path fill="#faa592" d="M25 30.7a1.514 1.514 0 0 0 .02.3H25a2.783 2.783 0 0 1-3-2.5v-.83A1.862 1.862 0 0 1 24 26h1zM42 28v.5a2.783 2.783 0 0 1-3 2.5h-.02a1.514 1.514 0 0 0 .02-.3V26h1a1.862 1.862 0 0 1 2 1.67z" opacity="1" data-original="#faa592"></path><path fill="#e68d79" d="M35 40v1a3 3 0 0 1-6 0v-3.71a6.693 6.693 0 0 0 6 0z" opacity="1" data-original="#e68d79"></path><path fill="#faa592" d="M35 37.29a6.693 6.693 0 0 1-6 0A7.255 7.255 0 0 1 25.02 31a1.514 1.514 0 0 1-.02-.3V25c6.08 0 8-1 10-3 1 2 2.34 3 4 3v5.7a1.514 1.514 0 0 1-.02.3 7.292 7.292 0 0 1-2.03 4.86A6.683 6.683 0 0 1 35 37.29z" opacity="1" data-original="#faa592"></path><path fill="#ba7b72" d="m38 38 6-4c-1 1-4 5.37-4 12zM26 38l-2 8c0-6.63-3-11-4-12z" opacity="1" data-original="#ba7b72"></path><path fill="#faa592" d="M52 25v1.97a74.085 74.085 0 0 1-.44 8.03 20.7 20.7 0 0 1-3.35 9.18L47 46l-2.61 11.09L44 57c-4 0-4-6-4-6v-5c0-6.63 3-11 4-12l2-9-1-11-4-3V7.5A1.5 1.5 0 0 1 42.5 6a1.459 1.459 0 0 1 1.41 1.03 1.267 1.267 0 0 1 .09.47V9h7zM24 46v5s0 6-4 6l-.39.09L17 46l-1.21-1.82A20.7 20.7 0 0 1 12.44 35a74.085 74.085 0 0 1-.44-8.03V25l1-16h7V7.5a1.267 1.267 0 0 1 .09-.47A1.459 1.459 0 0 1 21.5 6 1.5 1.5 0 0 1 23 7.5V11l-4 3-1 11 2 9c1 1 4 5.37 4 12z" opacity="1" data-original="#faa592"></path><path fill="#f29b87" d="M51.328 14.254 51 9h-7V7.5a1.267 1.267 0 0 0-.09-.47A1.459 1.459 0 0 0 42.5 6 1.5 1.5 0 0 0 41 7.5V11l4 3 4 2zM19 14l4-3V7.5A1.5 1.5 0 0 0 21.5 6a1.459 1.459 0 0 0-1.41 1.03 1.267 1.267 0 0 0-.09.47V9h-7l-.328 5.254L15 16z" opacity="1" data-original="#f29b87"></path><path fill="#2a2e33" d="M40 24h-1v-1c-1.66 0-3-2-4-4-2 2-3.92 4-10 4v1h-1a1.862 1.862 0 0 0-2 1.67v2A1.862 1.862 0 0 1 24 26h1v-1c6.08 0 8-1 10-3 1 2 2.34 3 4 3v1h1a1.862 1.862 0 0 1 2 1.67v-2A1.862 1.862 0 0 0 40 24z" opacity="1" data-original="#2a2e33"></path><path fill="#414952" d="M32 14a10 10 0 0 0-10 10v2a10 10 0 0 1 20 0v-2a10 10 0 0 0-10-10z" opacity="1" data-original="#414952"></path><path fill="#e68d79" d="M41 29v-.664C41 27.6 40.1 27 39 27v3.7c0 .06-.008.12-.012.18C40.158 30.607 41 29.872 41 29zM23 29v-.664C23 27.6 23.9 27 25 27v3.7c0 .06.008.12.012.18C23.842 30.607 23 29.872 23 29z" opacity="1" data-original="#e68d79"></path><path fill="#f29b87" d="m20 34-2-9 1-11-4 2v3c0 .7.005 1.382.013 2.062a126.583 126.583 0 0 0 .858 14.143 2 2 0 0 0 3.912.256l.357-1.309c-.048-.052-.098-.11-.14-.152z" opacity="1" data-original="#f29b87"></path><path fill="#e68d79" d="m18.74 16 .084-.059L19 14l-4 2-2.328-1.746-.148 2.368 1.006.709a2 2 0 0 0 2 .175z" opacity="1" data-original="#e68d79"></path><path fill="#f29b87" d="m45 14 1 11-2 9c-.042.042-.092.1-.14.152l.383 1.405a2 2 0 0 0 3.913-.255A120.539 120.539 0 0 0 49 20.91V20a6.472 6.472 0 0 0-3.578-5.789z" opacity="1" data-original="#f29b87"></path><path fill="#e68d79" d="M48 42c-.379 0 .3-.1 0 0a2.617 2.617 0 0 1-2.526-1.93l-1.614-5.918A18.69 18.69 0 0 0 40 46v5s.009 5.033 3.094 5.87A3.386 3.386 0 0 0 44 57l.39.09L47 46l1.21-1.82A20.716 20.716 0 0 0 49.478 42z" opacity="1" data-original="#e68d79"></path><path fill="#d47c69" d="M48 42h-1c-2.211 0-3 1.789-3 4l1 5.011-.6-2.985a6.859 6.859 0 0 1-1.921 2.667c-.993-2.909-1.309-7.156-1.453-11.215A20.822 20.822 0 0 0 40 46v5s.009 5.033 3.094 5.87A3.386 3.386 0 0 0 44 57l.39.09.823-3.5.165-.7L47 46l1.21-1.82A20.716 20.716 0 0 0 49.478 42z" opacity="1" data-original="#d47c69"></path><path fill="#e68d79" d="M51 9h-7V7.5a1.267 1.267 0 0 0-.09-.47 1.444 1.444 0 0 0-.91-.942V9a2 2 0 0 0 2 2h3a2 2 0 0 1 2 2v2.25l1.328-1z" opacity="1" data-original="#e68d79"></path><path fill="#ffbeaa" d="M49 3h-3a2 2 0 0 0-1.721 1H49a1 1 0 0 1 1 1v2a1 1 0 0 0 1 1V5a2.006 2.006 0 0 0-2-2z" opacity="1" data-original="#ffbeaa"></path><path fill="#e68d79" d="m50.945 17 .531-.375-.148-2.368L49 16l-4-2 .176 1.941.084.059 2.683 1.259A3 3 0 0 0 50.945 17z" opacity="1" data-original="#e68d79"></path><path fill="#d47c69" d="M32 38a6.6 6.6 0 0 1-3-.71V41a2.982 2.982 0 0 0 1 2.224v-2.5a1 1 0 0 1 1.288-.951A5.149 5.149 0 0 0 35 39v-1.71a6.6 6.6 0 0 1-3 .71z" opacity="1" data-original="#d47c69"></path><path fill="#e68d79" d="M16 42c.379 0-.3-.1 0 0a2.617 2.617 0 0 0 2.526-1.93l1.614-5.918A18.69 18.69 0 0 1 24 46v5s-.009 5.033-3.094 5.87A3.386 3.386 0 0 1 20 57l-.39.09L17 46l-1.21-1.82A20.716 20.716 0 0 1 14.522 42z" opacity="1" data-original="#e68d79"></path><path fill="#d47c69" d="M23.03 39.66c.071 1.934.148 7.7-1.217 11.317-1.08-.139-1.849-1.43-2.306-2.51L20 46c0-2.211-.789-4-3-4h-2.478a20.716 20.716 0 0 0 1.268 2.18L17 46l1.622 6.891.264 1.121.724 3.078L20 57a3.386 3.386 0 0 0 .906-.13C23.991 56.033 24 51 24 51v-5a20.878 20.878 0 0 0-.97-6.34z" opacity="1" data-original="#d47c69"></path><path fill="#e68d79" d="M13 9h7V7.5a1.267 1.267 0 0 1 .09-.47 1.444 1.444 0 0 1 .91-.942V9a2 2 0 0 1-2 2h-3a2 2 0 0 0-2 2v2.25l-1.328-1z" opacity="1" data-original="#e68d79"></path><path fill="#ffbeaa" d="M15 3h3a2 2 0 0 1 1.721 1H15a1 1 0 0 0-1 1v2a1 1 0 0 1-1 1V5a2.006 2.006 0 0 1 2-2z" opacity="1" data-original="#ffbeaa"></path><path fill="#e68d79" d="M35 22c-1.764 1.764-3.469 2.749-8.016 2.957-.3.014-.615.025-.942.032S25.362 25 25 25v5.7a1.514 1.514 0 0 0 .02.3A7.255 7.255 0 0 0 29 37.29a6.6 6.6 0 0 0 3 .71 6.848 6.848 0 0 0 1-.082 6.592 6.592 0 0 1-2-.628A7.255 7.255 0 0 1 27.02 31a1.514 1.514 0 0 1-.02-.3v-1.9a2 2 0 0 1 1.764-1.983A9.08 9.08 0 0 0 35 24c1 2 2.34 3 4 3v-2c-1.66 0-3-1-4-3z" opacity="1" data-original="#e68d79"></path><path fill="#ffb8a8" d="M37 30.7a1.514 1.514 0 0 1-.02.3 7.292 7.292 0 0 1-2.03 4.86A6.683 6.683 0 0 1 33 37.29a6.592 6.592 0 0 1-2 .628A6.848 6.848 0 0 0 32 38a6.6 6.6 0 0 0 3-.71 6.683 6.683 0 0 0 1.95-1.43A7.292 7.292 0 0 0 38.98 31a1.514 1.514 0 0 0 .02-.3V27a3.636 3.636 0 0 1-2-.593z" opacity="1" data-original="#ffb8a8"></path><path fill="#2357d1" d="M58.438 13H58v4h3V9l-.621 2.485A2 2 0 0 1 58.438 13z" opacity="1" data-original="#2357d1"></path><path fill="#5931c2" d="M57.562 13a2 2 0 0 1-1.941-1.515L55 9v8h3v-4zM6.438 13H6v4h3V9l-.621 2.485A2 2 0 0 1 6.438 13z" opacity="1" data-original="#5931c2"></path><path fill="#2357d1" d="M5.562 13a2 2 0 0 1-1.941-1.515L3 9v8h3v-4z" opacity="1" data-original="#2357d1"></path><path fill="#2cb5ff" d="m38 38-3 2v1a2.968 2.968 0 0 1-.627 1.813l4.294-2.146z" opacity="1" data-original="#2cb5ff"></path><path fill="#2864f0" d="m20 57-.39.09L21 63h2.818l-1.3-7.173A3.155 3.155 0 0 1 20 57z" opacity="1" data-original="#2864f0"></path><path fill="#2cb5ff" d="M29 41v-1l-3-2-.667 2.667 4.287 2.143A2.972 2.972 0 0 1 29 41z" opacity="1" data-original="#2cb5ff"></path><path fill="#2864f0" d="M44.39 57.09 44 57a3.155 3.155 0 0 1-2.514-1.173L40.182 63H43z" opacity="1" data-original="#2864f0"></path><path fill="#333940" d="M23 8h18v2H23z" opacity="1" data-original="#333940"></path><path fill="#2a2e33" d="M61 8h2v2h-2z" opacity="1" data-original="#2a2e33"></path><path fill="#333940" d="M1 8h2v2H1z" opacity="1" data-original="#333940"></path><path fill="#e68d79" d="M33 29.857C33 31.514 32.552 32 32 32s-1-.486-1-2.143S31.448 26 32 26s1 2.2 1 3.857z" opacity="1" data-original="#e68d79"></path><ellipse cx="36" cy="26" fill="#2a2e33" rx="1" ry="2" opacity="1" data-original="#2a2e33"></ellipse><path fill="#2a2e33" d="M27 26c0 1.105.447 2 1 2s1-.895 1-2a3.442 3.442 0 0 0-.2-1.183c-.5.058-1.053.1-1.65.132A3.571 3.571 0 0 0 27 26z" opacity="1" data-original="#2a2e33"></path><ellipse cx="32" cy="35" fill="#fde8e6" rx="1" ry="2" opacity="1" data-original="#fde8e6"></ellipse><path fill="#333940" d="M51 8v1h-7v1h11V8zM13 8v1h7v1H9V8z" opacity="1" data-original="#333940"></path><path fill="#e1eaf2" d="M32 45a4 4 0 0 0 4-4v-1.667L35 40v1a3 3 0 0 1-6 0v-1l-1-.667V41a4 4 0 0 0 4 4zM44 57c-4 0-4-6-4-6v-5l-2-8-.883.589L39 46.123V51c0 2.421 1.045 7 5 7a.948.948 0 0 0 .185-.037l.2-.873zM25 51v-4.877l1.883-7.534L26 38l-2 8v5s0 6-4 6l-.39.09.205.873A.948.948 0 0 0 20 58c3.955 0 5-4.579 5-7z" opacity="1" data-original="#e1eaf2"></path><g fill="#f6fafd"><ellipse cx="36.684" cy="54.695" rx="1.642" ry="2.286" transform="rotate(-45 36.7 54.722)" fill="#f6fafd" opacity="1" data-original="#f6fafd"></ellipse><ellipse cx="36.682" cy="50.708" rx=".825" ry="1.148" transform="rotate(-45 36.699 50.734)" fill="#f6fafd" opacity="1" data-original="#f6fafd"></ellipse><ellipse cx="59.427" cy="3.208" rx=".413" ry=".574" transform="rotate(-45 59.456 3.21)" fill="#f6fafd" opacity="1" data-original="#f6fafd"></ellipse><ellipse cx="4.427" cy="3.208" rx=".413" ry=".574" transform="rotate(-45 4.43 3.21)" fill="#f6fafd" opacity="1" data-original="#f6fafd"></ellipse></g></g></g></svg>