<svg enable-background="new 0 0 512 512" height="512" viewBox="0 0 512 512" width="512" xmlns="http://www.w3.org/2000/svg"><g id="Red_x5F_wine"><g><path d="m346.962 473.35c0 18.64-45.15 33.75-100.86 33.75-55.7 0-100.86-15.11-100.86-33.75 0-.94.12-1.88.35-2.81l.01-.03c.18-.75 3.25-11.27 4.01-13.89-.26 1-.39 2.01-.39 3.03 0 18.63 43.38 33.75 96.88 33.75 53.51 0 96.88-15.12 96.88-33.75 0-.87-.1-1.74-.28-2.6 1.01 3.47 4.26 14.7 4.26 16.3z" fill="#f03974"/><ellipse cx="246.105" cy="459.645" fill="#ffaecb" rx="96.878" ry="33.75"/><path d="m289.432 311.99c-18.76 4.75-31.99 21.51-31.99 40.86v69.79c0 10.42 6.92 19.5 16.9 22.48 8.85 2.64 14.43 6.5 14.43 10.81 0 7.96-19.11 14.42-42.67 14.42s-42.66-6.46-42.66-14.42c0-4.31 5.58-8.17 14.43-10.81 9.98-2.98 16.89-12.06 16.89-22.48v-69.79c0-19.35-13.22-36.11-31.99-40.86-44.88-11.34-106.77-44.61-93.51-142.03l21.04-121.08c0 23.14 51.85 41.91 115.8 41.91 63.96 0 115.8-18.77 115.8-41.91l21.04 121.08c13.27 97.42-48.62 130.69-93.51 142.03z" fill="#ffaecb"/><path d="m289.432 311.99c-18.76 4.75-31.99 21.51-31.99 40.86v69.79c0 10.42 6.92 19.5 16.9 22.48 8.85 2.64 14.43 6.5 14.43 10.81 0 7.96-19.11 14.42-42.67 14.42s-42.66-6.46-42.66-14.42c0-4.31 5.58-8.17 14.43-10.81 9.98-2.98 16.89-12.06 16.89-22.48v-69.79c0-19.35-13.22-36.11-31.99-40.86-27.18-6.87-60.6-21.78-79.78-54.11 44.16 1.76 100.03-23.07 143.24-92.1 29.69-47.42 73.91-64.46 103.73-70.54l12.98 74.72c13.27 97.42-48.62 130.69-93.51 142.03z" fill="#ff78ad"/><path d="m343.852 259.81c-13.51 15.48-33.32 26.62-58.87 33.13-20.44 5.2-36.8 5.35-38.6 5.35h-.52c-1.83 0-18.19-.15-38.64-5.35-25.55-6.51-45.35-17.65-58.87-33.13-18.07-20.71-24.73-49.91-19.77-86.8l17.86-102.78c20.18 12.31 57.26 20.56 99.66 20.56 42.42 0 79.5-8.25 99.67-20.57l17.86 102.79c4.95 36.89-1.7 66.09-19.78 86.8z" fill="#fff"/><path d="m362.522 166.63c-38 19.21-90.33 32.84-138.14 1.21-40.22-26.6-68.86-36.28-88.14-38.93 0 0 28.41-33.31 94.77 0 66.35 33.31 86.08 45.44 131.51 37.72z" fill="#050024"/><path d="m361.903 48.875c0 23.15-51.845 41.916-115.799 41.916s-115.798-18.766-115.798-41.916 51.845-41.916 115.799-41.916 115.798 18.767 115.798 41.916zm-42.458 15.084c6.518-2.114 11.584-4.285 15.479-6.314 7.095-3.697 7.096-13.842 0-17.539-3.895-2.03-8.961-4.2-15.479-6.314-19.964-6.475-46.01-10.04-73.34-10.04-27.329 0-53.375 3.565-73.339 10.04-6.518 2.114-11.584 4.285-15.479 6.314-7.095 3.697-7.095 13.842 0 17.539 3.895 2.029 8.961 4.2 15.479 6.314 19.964 6.475 46.01 10.04 73.339 10.04 27.33 0 53.376-3.565 73.34-10.04z" fill="#ffe8f1"/><path d="m343.855 259.811c-13.521 15.476-33.319 26.62-58.872 33.13-20.442 5.199-36.796 5.355-38.596 5.355h-.533c-1.822 0-18.187-.155-38.63-5.355-25.553-6.511-45.351-17.654-58.872-33.13-18.076-20.709-24.731-49.906-19.776-86.803l7.666-44.096c19.276 2.644 47.918 12.332 88.136 38.93 47.818 31.63 100.146 17.998 138.142-1.211l1.111 6.377c4.955 36.896-1.7 66.094-19.776 86.803z" fill="#5f1367"/><path d="m288.765 455.925c0 3.59-3.887 6.883-10.305 9.405 0 0 0 0-.01 0-.445.023-.883.038-1.316.047-15.07.293-27.601-11.608-28.616-26.646-1.146-16.991-2.961-49.54-2.416-78.852.781-41.269 41.872-47.667 43.296-47.875-18.75 4.757-31.953 21.5-31.953 40.853v69.79c0 10.416 6.916 19.492 16.897 22.471 8.848 2.64 14.423 6.506 14.423 10.807z" fill="#f03974"/><path d="m175.2 140.559c-15.847-6.853-28.723-10.243-38.959-11.647l-7.666 44.096c-4.955 36.896 1.7 66.094 19.776 86.803 13.521 15.476 33.319 26.62 58.872 33.13 20.443 5.199 36.808 5.355 38.63 5.355h.533c1.592 0 14.566-.124 31.682-3.747-129.716-34.738-111.502-103.972-102.868-153.99z" fill="#481347"/><g fill="#fff"><path d="m334.475 243.294c-2.089 3.644-4.479 6.413-7.042 8.962-2.568 2.521-5.331 4.728-8.278 6.662-2.946 1.929-6.079 3.579-9.386 4.864-3.304 1.282-6.791 2.194-10.367 2.579-2.679.288-5.084-1.649-5.373-4.328-.257-2.391 1.259-4.564 3.492-5.209l.176-.05c5.04-1.459 9.686-4.395 13.619-8.062 1.964-1.835 3.756-3.864 5.278-5.99 1.512-2.104 2.783-4.393 3.434-6.307 1.433-4.209 6.007-6.46 10.216-5.027s6.46 6.007 5.026 10.216c-.163.486-.795 1.69-.795 1.69z"/><circle cx="273.453" cy="270.117" r="7.219"/></g></g></g></svg>